<svg width="120" height="120" xmlns="http://www.w3.org/2000/svg">
 <!-- Created with Method Draw - http://github.com/duopixel/Method-Draw/ -->

 <g>
  <title>background</title>
  <g display="none" overflow="visible" y="0" x="0" height="100%" width="100%" id="canvasGrid">
   <rect fill="url(#gridpattern)" stroke-width="0" y="0" x="0" height="100%" width="100%"/>
  </g>
 </g>
 <g>
  <title>Layer 1</title>
  <defs>
   <style>.cls-1{fill:#609;}.cls-2{fill:#64bfdc;}</style>
  </defs>
  <g stroke="null" id="svg_8">
   <path stroke="null" id="svg_5" d="m81.947152,51.010931c0,-9.379922 -6.854188,-16.237687 -18.059006,-16.237687l-25.157987,0l0,50.375391l11.44961,0l0,-18.051138l8.384141,0l10.570583,18.051138l13.140903,0l-12.094972,-19.18194c5.802694,-1.276712 11.766728,-6.039627 11.766728,-14.955764z" class="cls-1"/>
   <polygon stroke="null" id="svg_6" points="44.365989685058594,18.83258628845215 44.365989685058594,8.410430908203125 10.985137939453125,8.410430908203125 10.985137939453125,13.621508598327637 10.985137939453125,18.83258628845215 10.985137939453125,101.16746520996094 10.985137939453125,106.3785400390625 10.985137939453125,111.58956909179688 44.365989685058594,111.58956909179688 44.365989685058594,101.16746520996094 22.112089157104492,101.16746520996094 22.112089157104492,18.83258628845215 44.365989685058594,18.83258628845215 " class="cls-2"/>
   <polygon stroke="null" id="svg_7" points="76.63404083251953,18.83258628845215 76.63404083251953,8.410430908203125 110.01488494873047,8.410430908203125 110.01488494873047,13.621508598327637 110.01488494873047,18.83258628845215 110.01488494873047,101.16746520996094 110.01488494873047,106.3785400390625 110.01488494873047,111.58956909179688 76.63404083251953,111.58956909179688 76.63404083251953,101.16746520996094 98.88794708251953,101.16746520996094 98.88794708251953,18.83258628845215 76.63404083251953,18.83258628845215 " class="cls-2"/>
  </g>
 </g>
</svg>